REM DIRINDEX 1\2\6,1\2\7,1\2\8,1\2\9,1\3\10,1\3\11,1\4\12,1\4\13,1\4\14,1\5\15,1\5\16,1\5\17
REM DIRNAME folder01,folder02,folder03,folder04,folder05,folder06,folder07,folder08,folder09,folder10,folder11,folder12,folder13,folder14,folder15,folder16,folder17
TITLE ""
FILE "1900_3_086 sec15_1417_1432.mp3" MP3
  TRACK 01 AUDIO
    TITLE "0:"
    INDEX 01 00:00:00
  TRACK 02 AUDIO
    TITLE "17:cjc020_8815"
    INDEX 01 00:00:11
  TRACK 03 AUDIO
    TITLE "0:"
    INDEX 01 00:01:38
  TRACK 04 AUDIO
    TITLE "16:cjc020_8816"
    INDEX 01 00:01:40
  TRACK 05 AUDIO
    TITLE "0:"
    INDEX 01 00:02:59
  TRACK 06 AUDIO
    TITLE "17:cjc020_8817"
    INDEX 01 00:03:37
  TRACK 07 AUDIO
    TITLE "0:"
    INDEX 01 00:04:31
  TRACK 08 AUDIO
    TITLE "16:cjc020_8818"
    INDEX 01 00:04:40
  TRACK 09 AUDIO
    TITLE "0:"
    INDEX 01 00:05:32
  TRACK 10 AUDIO
    TITLE "17:cjc020_8819"
    INDEX 01 00:06:14
  TRACK 11 AUDIO
    TITLE "0:"
    INDEX 01 00:08:42
  TRACK 12 AUDIO
    TITLE "16:cjc020_8820"
    INDEX 01 00:08:46
  TRACK 13 AUDIO
    TITLE "0:"
    INDEX 01 00:09:53
  TRACK 14 AUDIO
    TITLE "17:cjc020_8821"
    INDEX 01 00:10:35
  TRACK 15 AUDIO
    TITLE "0:"
    INDEX 01 00:11:42
  TRACK 16 AUDIO
    TITLE "16:cjc020_8822"
    INDEX 01 00:11:44
  TRACK 17 AUDIO
    TITLE "0:"
    INDEX 01 00:12:42
  TRACK 18 AUDIO
    TITLE "17:cjc020_8823"
    INDEX 01 00:13:28
  TRACK 19 AUDIO
    TITLE "0:"
    INDEX 01 00:16:40
  TRACK 20 AUDIO
    TITLE "16:cjc020_8824"
    INDEX 01 00:17:25
  TRACK 21 AUDIO
    TITLE "0:"
    INDEX 01 00:18:39
  TRACK 22 AUDIO
    TITLE "17:cjc020_8825"
    INDEX 01 00:19:22
  TRACK 23 AUDIO
    TITLE "0:"
    INDEX 01 00:20:51
  TRACK 24 AUDIO
    TITLE "16:cjc020_8826"
    INDEX 01 00:20:57
  TRACK 25 AUDIO
    TITLE "0:"
    INDEX 01 00:21:62
  TRACK 26 AUDIO
    TITLE "17:cjc020_8827"
    INDEX 01 00:22:44
  TRACK 27 AUDIO
    TITLE "0:"
    INDEX 01 00:23:55
  TRACK 28 AUDIO
    TITLE "16:cjc020_8828"
    INDEX 01 00:23:57
  TRACK 29 AUDIO
    TITLE "0:"
    INDEX 01 00:24:72
  TRACK 30 AUDIO
    TITLE "17:cjc020_8829"
    INDEX 01 00:25:58
  TRACK 31 AUDIO
    TITLE "0:"
    INDEX 01 00:27:14
  TRACK 32 AUDIO
    TITLE "16:cjc020_8830"
    INDEX 01 00:27:18
  TRACK 33 AUDIO
    TITLE "0:"
    INDEX 01 00:28:27
  TRACK 34 AUDIO
    TITLE "17:cjc020_8831"
    INDEX 01 00:29:09
  TRACK 35 AUDIO
    TITLE "0:"
    INDEX 01 00:30:48
  TRACK 36 AUDIO
    TITLE "16:cjc020_8832"
    INDEX 01 00:30:50
  TRACK 37 AUDIO
    TITLE "0:"
    INDEX 01 00:31:55
  TRACK 38 AUDIO
    TITLE "17:cjc020_8833"
    INDEX 01 00:32:39
  TRACK 39 AUDIO
    TITLE "0:"
    INDEX 01 00:33:64
  TRACK 40 AUDIO
    TITLE "16:cjc020_8834"
    INDEX 01 00:33:71
  TRACK 41 AUDIO
    TITLE "0:"
    INDEX 01 00:35:12
  TRACK 42 AUDIO
    TITLE "17:cjc020_8835"
    INDEX 01 00:35:70
  TRACK 43 AUDIO
    TITLE "0:"
    INDEX 01 00:36:68
  TRACK 44 AUDIO
    TITLE "16:cjc020_8836"
    INDEX 01 00:36:74
  TRACK 45 AUDIO
    TITLE "0:"
    INDEX 01 00:37:69
  TRACK 46 AUDIO
    TITLE "17:cjc020_8837"
    INDEX 01 00:38:49
  TRACK 47 AUDIO
    TITLE "0:"
    INDEX 01 00:40:13
  TRACK 48 AUDIO
    TITLE "16:cjc020_8838"
    INDEX 01 00:40:17
  TRACK 49 AUDIO
    TITLE "0:"
    INDEX 01 00:41:20
  TRACK 50 AUDIO
    TITLE "17:cjc020_8839"
    INDEX 01 00:42:04
  TRACK 51 AUDIO
    TITLE "0:"
    INDEX 01 00:43:15
  TRACK 52 AUDIO
    TITLE "16:cjc020_8840"
    INDEX 01 00:43:19
  TRACK 53 AUDIO
    TITLE "0:"
    INDEX 01 00:44:32
  TRACK 54 AUDIO
    TITLE "17:cjc020_8841"
    INDEX 01 00:45:10
  TRACK 55 AUDIO
    TITLE "0:"
    INDEX 01 00:46:31
  TRACK 56 AUDIO
    TITLE "16:cjc020_8842"
    INDEX 01 00:46:35
  TRACK 57 AUDIO
    TITLE "0:"
    INDEX 01 00:47:32
  TRACK 58 AUDIO
    TITLE "17:cjc020_8843"
    INDEX 01 00:48:16
  TRACK 59 AUDIO
    TITLE "0:"
    INDEX 01 00:49:16
  TRACK 60 AUDIO
    TITLE "16:cjc020_8844"
    INDEX 01 00:49:21
  TRACK 61 AUDIO
    TITLE "0:"
    INDEX 01 00:50:21
  TRACK 62 AUDIO
    TITLE "17:cjc020_8845"
    INDEX 01 00:51:05
  TRACK 63 AUDIO
    TITLE "0:"
    INDEX 01 00:52:04
  TRACK 64 AUDIO
    TITLE "16:cjc020_8846"
    INDEX 01 00:52:06
  TRACK 65 AUDIO
    TITLE "0:"
    INDEX 01 00:53:00
